# xmcd CD database file
#
# Track frame offsets:
#	150
#	842
#	6128
#	16527
#	22032
#	34506
#	40710
#	45646
#	52865
#	57993
#	64344
#	70909
#	85067
#	89498
#	95763
#	101476
#	119716
#	125766
#	131202
#	138719
#	142964
#	149696
#	155390
#	169157
#	183359
#	191118
#	197597
#	210299
#	214406
#	225888
#	232853
#	237385
#	253837
#	268813
#
# Disc length: 3778 seconds
#
# Revision: 4
# Processed by: cddbd v1.5.2PL0 Copyright (c) Steve Scherf et al.
# Submitted via: CDex 1.70beta2
#
DISCID=e20ec022
DTITLE=99 x Jazz, Begriffe - Begriffe
DYEAR=2007
DGENRE=Jazz
TTITLE0=01 Einleitung
TTITLE1=02 Jazz
TTITLE2=03 Improvisation (Stefano Bollani and Joe Sample)
TTITLE3=04 Swing (Rhythmus)
TTITLE4=05 Eigener Stil (Joachim Kuehn and Tryvge Seim)
TTITLE5=06 Blue Notes
TTITLE6=07 Blues-Schema (Goetz Alsmann)
TTITLE7=08 Synkopen (Joe Sample and Nik Baertsch)
TTITLE8=09 Beat, Downbeat, Backbeat and Offbeat
TTITLE9=10 Call And Response (Branford Marsalis)
TTITLE10=11 Polyrhythmik (Nik Baertsch)
TTITLE11=12 Laid Back (Madeleine Peyroux - B Holiday and Her Orch, Moonglo
TTITLE12=13 Voicing (Kenny Barron and Stefano Bollani)
TTITLE13=14 Changes (Joe Sample)
TTITLE14=15 AABA (Goetz Alsmann)
TTITLE15=16 Ballade (J CullumL Wright, S Nergaard - Chet Baker, Alone together)
TTITLE16=17 Standards (Joe Sample)
TTITLE17=18 Jam Session (Richard Bona)
TTITLE18=19 Battle (Goetz Alsmann)
TTITLE19=20 Chase Chorus
TTITLE20=21 Rhythm Section (Frank Chastenier)
TTITLE21=22 Arrangement (Branford Marsalis)
TTITLE22=23 Bigband (T Broenner,F Chastenier - C Webb and Orch, When I get low I get high)
TTITLE23=24 Dämpfer (Roy Hargrove - Miles Davis, When I fall in love)
TTITLE24=25 Scat-Gesaang (Silje Nergaard - L Armstrong and Hot 5, Heebie Jeebies)
TTITLE25=26 Crooner (Jamie Cullum)
TTITLE26=27 Drogen (Kenny Baron and Nik Baertsch)
TTITLE27=28 Downbeat Magazin
TTITLE28=29 Schallplatte (Original Dixieland Jazz Band, Livery Stable Blues)
TTITLE29=30 Take
TTITLE30=31 Produzent (Nik Baertsch and Larry Klein)
TTITLE31=32 Verve Records (Charlie Parker, Coleman Hawkins and Letser Young, JATP Blues)
TTITLE32=33 Blue Note Records (Herbie Hancock)
TTITLE33=34 ECM (michel Naura)
EXTD=YEAR: 2007
EXTT0=
EXTT1=
EXTT2=
EXTT3=
EXTT4=
EXTT5=
EXTT6=
EXTT7=
EXTT8=
EXTT9=
EXTT10=
EXTT11=
EXTT12=
EXTT13=
EXTT14=
EXTT15=
EXTT16=
EXTT17=
EXTT18=
EXTT19=
EXTT20=
EXTT21=
EXTT22=
EXTT23=
EXTT24=
EXTT25=
EXTT26=
EXTT27=
EXTT28=
EXTT29=
EXTT30=
EXTT31=
EXTT32=
EXTT33=
PLAYORDER=
